<svg id="Layer_1" data-name="Layer 1" xmlns="http://www.w3.org/2000/svg" xmlns:xlink="http://www.w3.org/1999/xlink" viewBox="0 0 48.14 55.75"><defs><style>.cls-1,.cls-4,.cls-5,.cls-6,.cls-7,.cls-8,.cls-9{fill:none;}.cls-2{clip-path:url(#clip-path);}.cls-3{fill:#eed05d;}.cls-4,.cls-5,.cls-6,.cls-7,.cls-8,.cls-9{stroke:#683c14;stroke-linejoin:round;}.cls-4{stroke-width:0.93px;}.cls-5,.cls-8{stroke-linecap:round;}.cls-5{stroke-width:0.46px;}.cls-6{stroke-width:0.62px;}.cls-7,.cls-8{stroke-width:0.68px;}.cls-9{stroke-width:0.56px;}</style><clipPath id="clip-path"><rect class="cls-1" y="-7.75" width="53.84" height="78.66"/></clipPath></defs><g class="cls-2"><path class="cls-3" d="M36.26,30.4c0,9.55-5.56,17.3-12.42,17.3S11.42,40,11.42,30.4,17,13.1,23.84,13.1s12.42,7.75,12.42,17.3"/><path class="cls-4" d="M36.26,30.4c0,9.55-5.56,17.3-12.42,17.3S11.42,40,11.42,30.4,17,13.1,23.84,13.1,36.26,20.85,36.26,30.4Z"/></g><g class="cls-2"><line class="cls-1" x1="16.66" y1="25.18" x2="16.85" y2="21.92"/><line class="cls-5" x1="16.66" y1="25.18" x2="16.85" y2="21.92"/><line class="cls-1" x1="16.66" y1="25.2" x2="13.62" y2="24.01"/><line class="cls-5" x1="16.66" y1="25.2" x2="13.62" y2="24.01"/><line class="cls-1" x1="16.65" y1="25.18" x2="14.59" y2="27.7"/><line class="cls-5" x1="16.65" y1="25.18" x2="14.59" y2="27.7"/><line class="cls-1" x1="16.7" y1="25.19" x2="18.46" y2="27.94"/><line class="cls-5" x1="16.7" y1="25.19" x2="18.46" y2="27.94"/><line class="cls-1" x1="16.7" y1="25.18" x2="19.85" y2="24.35"/><line class="cls-5" x1="16.7" y1="25.18" x2="19.85" y2="24.35"/><line class="cls-1" x1="16.66" y1="32.31" x2="16.85" y2="29.05"/><line class="cls-5" x1="16.66" y1="32.31" x2="16.85" y2="29.05"/><line class="cls-1" x1="16.66" y1="32.33" x2="13.62" y2="31.14"/><line class="cls-5" x1="16.66" y1="32.33" x2="13.62" y2="31.14"/><line class="cls-1" x1="16.65" y1="32.31" x2="14.59" y2="34.83"/><line class="cls-5" x1="16.65" y1="32.31" x2="14.59" y2="34.83"/><line class="cls-1" x1="16.7" y1="32.33" x2="18.46" y2="35.07"/><line class="cls-5" x1="16.7" y1="32.33" x2="18.46" y2="35.07"/><line class="cls-1" x1="16.7" y1="32.31" x2="19.85" y2="31.48"/><line class="cls-5" x1="16.7" y1="32.31" x2="19.85" y2="31.48"/><line class="cls-1" x1="23.76" y1="25.18" x2="23.94" y2="21.92"/><line class="cls-5" x1="23.76" y1="25.18" x2="23.94" y2="21.92"/><line class="cls-1" x1="23.75" y1="25.2" x2="20.72" y2="24.01"/><line class="cls-5" x1="23.75" y1="25.2" x2="20.72" y2="24.01"/><line class="cls-1" x1="23.75" y1="25.18" x2="21.68" y2="27.7"/><line class="cls-5" x1="23.75" y1="25.18" x2="21.68" y2="27.7"/><line class="cls-1" x1="23.79" y1="25.19" x2="25.56" y2="27.94"/><line class="cls-5" x1="23.79" y1="25.19" x2="25.56" y2="27.94"/><line class="cls-1" x1="23.79" y1="25.18" x2="26.95" y2="24.35"/><line class="cls-5" x1="23.79" y1="25.18" x2="26.95" y2="24.35"/><line class="cls-1" x1="23.76" y1="18.01" x2="23.94" y2="15.76"/><line class="cls-5" x1="23.76" y1="18.01" x2="23.94" y2="15.76"/><line class="cls-1" x1="23.75" y1="18.02" x2="20.72" y2="17.21"/><line class="cls-5" x1="23.75" y1="18.02" x2="20.72" y2="17.21"/><line class="cls-1" x1="23.75" y1="18.01" x2="21.68" y2="19.76"/><line class="cls-5" x1="23.75" y1="18.01" x2="21.68" y2="19.76"/><line class="cls-1" x1="23.79" y1="18.02" x2="25.56" y2="19.92"/><line class="cls-5" x1="23.79" y1="18.02" x2="25.56" y2="19.92"/><line class="cls-1" x1="23.79" y1="18.01" x2="26.95" y2="17.44"/><line class="cls-5" x1="23.79" y1="18.01" x2="26.95" y2="17.44"/><line class="cls-1" x1="23.76" y1="32.75" x2="23.94" y2="29.5"/><line class="cls-5" x1="23.76" y1="32.75" x2="23.94" y2="29.5"/><line class="cls-1" x1="23.75" y1="32.77" x2="20.72" y2="31.59"/><line class="cls-5" x1="23.75" y1="32.77" x2="20.72" y2="31.59"/><line class="cls-1" x1="23.75" y1="32.75" x2="21.68" y2="35.28"/><line class="cls-5" x1="23.75" y1="32.75" x2="21.68" y2="35.28"/><line class="cls-1" x1="23.79" y1="32.77" x2="25.56" y2="35.51"/><line class="cls-5" x1="23.79" y1="32.77" x2="25.56" y2="35.51"/><line class="cls-1" x1="23.79" y1="32.75" x2="26.95" y2="31.93"/><line class="cls-5" x1="23.79" y1="32.75" x2="26.95" y2="31.93"/><line class="cls-1" x1="30.85" y1="25.18" x2="31.04" y2="21.92"/><line class="cls-5" x1="30.85" y1="25.18" x2="31.04" y2="21.92"/><line class="cls-1" x1="30.85" y1="25.2" x2="27.81" y2="24.01"/><line class="cls-5" x1="30.85" y1="25.2" x2="27.81" y2="24.01"/><line class="cls-1" x1="30.84" y1="25.18" x2="28.78" y2="27.7"/><line class="cls-5" x1="30.84" y1="25.18" x2="28.78" y2="27.7"/><line class="cls-1" x1="30.89" y1="25.19" x2="32.65" y2="27.94"/><line class="cls-5" x1="30.89" y1="25.19" x2="32.65" y2="27.94"/><line class="cls-1" x1="30.89" y1="25.18" x2="34.04" y2="24.35"/><line class="cls-5" x1="30.89" y1="25.18" x2="34.04" y2="24.35"/><line class="cls-1" x1="29.49" y1="18.15" x2="28.42" y2="15.8"/><line class="cls-5" x1="29.49" y1="18.15" x2="28.42" y2="15.8"/><line class="cls-1" x1="29.49" y1="18.17" x2="27.95" y2="17.88"/><line class="cls-5" x1="29.49" y1="18.17" x2="27.95" y2="17.88"/><line class="cls-1" x1="29.49" y1="18.16" x2="29.59" y2="20.33"/><line class="cls-5" x1="29.49" y1="18.16" x2="29.59" y2="20.33"/><line class="cls-1" x1="29.51" y1="18.16" x2="31.12" y2="19.79"/><line class="cls-5" x1="29.51" y1="18.16" x2="31.12" y2="19.79"/><line class="cls-1" x1="29.5" y1="18.15" x2="30.39" y2="16.98"/><line class="cls-5" x1="29.5" y1="18.15" x2="30.39" y2="16.98"/><line class="cls-1" x1="18.3" y1="18.15" x2="19.37" y2="15.8"/><line class="cls-5" x1="18.3" y1="18.15" x2="19.37" y2="15.8"/><line class="cls-1" x1="18.3" y1="18.17" x2="19.84" y2="17.88"/><line class="cls-5" x1="18.3" y1="18.17" x2="19.84" y2="17.88"/><line class="cls-1" x1="18.3" y1="18.16" x2="18.2" y2="20.33"/><line class="cls-5" x1="18.3" y1="18.16" x2="18.2" y2="20.33"/><line class="cls-1" x1="18.28" y1="18.16" x2="16.67" y2="19.79"/><line class="cls-5" x1="18.28" y1="18.16" x2="16.67" y2="19.79"/><line class="cls-1" x1="18.29" y1="18.15" x2="17.4" y2="16.98"/><line class="cls-5" x1="18.29" y1="18.15" x2="17.4" y2="16.98"/><line class="cls-1" x1="30.85" y1="32.6" x2="31.04" y2="29.35"/><line class="cls-5" x1="30.85" y1="32.6" x2="31.04" y2="29.35"/><line class="cls-1" x1="30.85" y1="32.62" x2="27.81" y2="31.44"/><line class="cls-5" x1="30.85" y1="32.62" x2="27.81" y2="31.44"/><line class="cls-1" x1="30.84" y1="32.61" x2="28.78" y2="35.13"/><line class="cls-5" x1="30.84" y1="32.61" x2="28.78" y2="35.13"/><line class="cls-1" x1="30.89" y1="32.62" x2="32.65" y2="35.36"/><line class="cls-5" x1="30.89" y1="32.62" x2="32.65" y2="35.36"/><line class="cls-1" x1="30.89" y1="32.61" x2="34.04" y2="31.78"/><line class="cls-5" x1="30.89" y1="32.61" x2="34.04" y2="31.78"/></g><g class="cls-2"><path class="cls-3" d="M26.61,8.55c0,3.15-1.08,5.71-2.42,5.71s-2.42-2.56-2.42-5.71,1.09-5.71,2.42-5.71,2.42,2.55,2.42,5.71"/><path class="cls-6" d="M26.61,8.55c0,3.15-1.08,5.71-2.42,5.71s-2.42-2.56-2.42-5.71,1.09-5.71,2.42-5.71S26.61,5.39,26.61,8.55Z"/><path class="cls-3" d="M22.42,11.86l1.25-.45a7.54,7.54,0,0,0-2.4-3.93,4.35,4.35,0,0,0-4.52-.85s1.43-.21,3.43,1.43a7.81,7.81,0,0,1,2.24,3.8"/><path class="cls-6" d="M22.42,11.86l1.25-.45a7.54,7.54,0,0,0-2.4-3.93,4.35,4.35,0,0,0-4.52-.85s1.43-.21,3.43,1.43A7.81,7.81,0,0,1,22.42,11.86Z"/><path class="cls-3" d="M25.77,11.86l-1.25-.45a7.6,7.6,0,0,1,2.4-3.93,4.38,4.38,0,0,1,4.53-.85S30,6.42,28,8.06a7.81,7.81,0,0,0-2.24,3.8"/><path class="cls-6" d="M25.77,11.86l-1.25-.45a7.6,7.6,0,0,1,2.4-3.93,4.38,4.38,0,0,1,4.53-.85S30,6.42,28,8.06A7.84,7.84,0,0,0,25.77,11.86Z"/><path class="cls-3" d="M22,13.06l1.6-1.25s-1.42-2.15-5.32-3.16a8.22,8.22,0,0,0-7,1.68s2-1.09,5.65-.36a9.4,9.4,0,0,1,5,3.09"/><path class="cls-6" d="M22,13.06l1.6-1.25s-1.42-2.15-5.32-3.16a8.22,8.22,0,0,0-7,1.68s2-1.09,5.65-.36A9.45,9.45,0,0,1,22,13.06Z"/><path class="cls-3" d="M26.29,13l-1.6-1.25S26.11,9.62,30,8.61a8.22,8.22,0,0,1,7,1.67s-2-1.08-5.65-.35a9.32,9.32,0,0,0-5,3.08"/><path class="cls-6" d="M26.29,13l-1.6-1.25S26.11,9.62,30,8.61a8.22,8.22,0,0,1,7,1.67s-2-1.08-5.65-.35A9.4,9.4,0,0,0,26.29,13Z"/><path class="cls-3" d="M15.17,47.71H19.4s.47-5.34-4.59-12S1.3,29.42,1.3,29.42s4.62.79,9.67,6.74a19.58,19.58,0,0,1,4.2,11.55"/><path class="cls-7" d="M15.17,47.71H19.4s.47-5.34-4.59-12S1.3,29.42,1.3,29.42s4.62.79,9.67,6.74A19.58,19.58,0,0,1,15.17,47.71Z"/><path class="cls-3" d="M32.46,47.83H28.23s-.47-5.34,4.59-12,13.51-6.28,13.51-6.28-4.62.79-9.68,6.74a19.57,19.57,0,0,0-4.19,11.55"/><path class="cls-7" d="M32.46,47.83H28.23s-.47-5.34,4.59-12,13.51-6.28,13.51-6.28-4.62.79-9.68,6.74A19.6,19.6,0,0,0,32.46,47.83Z"/><path class="cls-3" d="M23.87,36.3c-3.25,0-3.7,10.65-3.7,10.65h7s0-10.65-3.25-10.65"/><path class="cls-7" d="M23.87,36.3c-3.25,0-3.7,10.65-3.7,10.65h7S27.12,36.3,23.87,36.3Z"/><line class="cls-8" x1="23.72" y1="39.55" x2="23.72" y2="46.5"/><path class="cls-3" d="M35.25,48.65a2.26,2.26,0,0,1-2.36,2.14H15a2.15,2.15,0,0,1-.29-4.29H32.9a2.26,2.26,0,0,1,2.36,2.15"/><path class="cls-4" d="M35.25,48.65a2.26,2.26,0,0,1-2.36,2.14H15a2.15,2.15,0,0,1-.29-4.29H32.9A2.26,2.26,0,0,1,35.25,48.65Z"/><path class="cls-3" d="M27.11,12.9c0,1.1-1.39,2-3.11,2s-3.1-.89-3.1-2,1.39-2,3.1-2,3.11.89,3.11,2"/><path class="cls-9" d="M27.11,12.9c0,1.1-1.39,2-3.11,2s-3.1-.89-3.1-2,1.39-2,3.1-2S27.11,11.81,27.11,12.9Z"/></g></svg>
